<svg width="318" height="358" viewBox="0 0 318 358" fill="none" xmlns="http://www.w3.org/2000/svg">
<path fill-rule="evenodd" clip-rule="evenodd" d="M172.28 3.20449C153.475 10.0861 132.295 23.4812 108.693 43.4146C101.15 49.7857 94.4724 54.999 93.8537 54.999C93.2367 54.999 91.7461 53.7984 90.542 52.331C89.301 50.8191 85.4689 49.663 81.6931 49.663C76.4144 49.663 74.0906 50.7978 70.4836 55.1359C65.1082 61.5996 64.6986 67.2912 69.2021 72.9207L72.4734 77.008L59.0912 92.3507C32.8049 122.486 15.1002 154.054 15.0035 170.951C14.9771 175.54 15.8174 179.834 16.8703 180.492C17.9478 181.166 28.9008 171.663 41.9191 158.759C85.0119 116.046 189.83 12.8608 194.633 8.42128C198.271 5.0614 198.92 3.51575 197.357 1.93452C194.364 -1.09453 182.372 -0.488004 172.28 3.20449ZM285.163 7.24204C275.306 9.4369 268.818 13.3499 263.628 20.2333C256.165 30.1351 253.862 41.0347 252.475 73.0096C251.519 95.0703 250.499 103.652 248.455 106.804C246.14 110.376 240.872 112.211 214.273 118.707C196.978 122.933 181.027 127.127 178.828 128.029L174.827 129.667L178.626 137.244C192.546 165.023 230.724 170.693 250.531 147.923C261.342 135.497 263.669 125.179 260.877 102.064C257.019 70.1193 262.957 35.8499 274.495 23.4705C279.312 18.3017 281.034 17.5084 285.359 18.4689C288.939 19.2658 291.363 18.7357 293.351 16.724C299.711 10.2889 295.16 5.01872 285.163 7.24204ZM30.7763 192.112C30.7763 193.176 33.5449 199.054 36.9287 205.178C40.3125 211.3 43.081 218.712 43.081 221.648C43.081 226.171 44.1744 227.488 50.2195 230.245C57.7465 233.679 60.6592 237.356 60.6592 243.419C60.6592 248.817 54.4541 254.208 48.242 254.208H42.8543L43.408 297.424C44.0179 345.222 44.359 346.757 55.9201 353.891C61.3078 357.214 65.4791 357.358 157.339 357.362C263.022 357.365 260.496 357.62 268.835 346.128C272.244 341.43 272.509 338.348 273.003 297.659L273.528 254.208L268.608 254.182C262.634 254.148 260.48 252.81 257.648 247.373C254.041 240.449 256.733 234.802 265.509 230.872C272.284 227.842 273.354 226.634 273.354 222.025C273.354 219.091 276.591 210.724 280.544 203.433L287.735 190.177H159.255C67.882 190.177 30.7763 190.735 30.7763 192.112ZM5.00155 219.094C2.90975 220.044 0.853105 222.159 0.429473 223.795C-1.4215 230.961 2.10115 233.8 23.1053 242.069C50.5992 252.89 49.1736 252.54 53.4258 249.527C57.8344 246.402 58.2879 239.599 54.3117 236.258C51.5344 233.926 34.9916 226.849 17.5928 220.551C11.2383 218.251 7.75076 217.847 5.00155 219.094ZM301.479 219.315C280.959 226.991 265.04 233.832 262.368 236.118C258.179 239.705 258.496 246.327 263.01 249.527C267.23 252.519 265.65 252.898 293.151 242.297C317.354 232.968 321.668 228.391 313.784 220.414C309.708 216.289 309.594 216.279 301.479 219.315ZM258.729 286.32C255.922 310.297 247.966 325.613 234.779 332.42C226.801 336.537 203.437 340.703 178.433 342.465C148.042 344.605 167.787 347.097 208.315 346.236C261.199 345.112 262.808 343.874 262.808 304.286C262.808 279.184 260.668 269.759 258.729 286.32Z" fill="#7C1717"/>
</svg>
